<svg width="30" height="30" viewBox="0 0 24 24" fill="none" xmlns="http://www.w3.org/2000/svg">
  <path d="M3 4.5C3 3.67157 3.67157 3 4.5 3C5.32843 3 6 3.67157 6 4.5C6 5.32843 5.32843 6 4.5 6C3.67157 6 3 5.32843 3 4.5Z" fill="currentColor"/>
  <path d="M3 12C3 11.1716 3.67157 10.5 4.5 10.5C5.32843 10.5 6 11.1716 6 12C6 12.8284 5.32843 13.5 4.5 13.5C3.67157 13.5 3 12.8284 3 12Z" fill="currentColor"/>
  <path d="M3 19.5C3 18.6716 3.67157 18 4.5 18C5.32843 18 6 18.6716 6 19.5C6 20.3284 5.32843 21 4.5 21C3.67157 21 3 20.3284 3 19.5Z" fill="currentColor"/>
  <path d="M7 5H22V7H7V5Z" fill="currentColor"/>
  <path d="M7 11H22V13H7V11Z" fill="currentColor"/>
  <path d="M7 17H22V19H7V17Z" fill="currentColor"/>
</svg>